<svg viewBox="0 0 1024 1024" width="32" height="32" xmlns="http://www.w3.org/2000/svg" xmlns:xlink="http://www.w3.org/1999/xlink">
    <path fill="currentColor" d="M218 160h159l73 180-90 54q-11 7-14.5 19t2.5 23q19 39 44 74 26 35 56.5 65.5T514 632q35 25 74 44 11 6 23 2.5t19-14.5l54-90 180 73v159q0 11-4.5 22T847 847t-18.5 12.5T807 864q-63-4-124-19t-117.5-40.5T457 743q-51-35-96-80t-80-96q-36-52-61.5-108.5T179 341 160 217q0-11 4.5-21.5T177 177t19-12.5 22-4.5zM132 132q-17 17-26.5 39.5T96 218q0 1 0 1.5t0 0.5q4 69 21 136 16 66 44 128t67 119q39 56 88 105t105 88q57 39 119 67t128 44q67 17 136 21 0 0 0.5 0t1.5 0q24 0 46.5-9.5T892 892t26.5-39.5 9.5-46.5V625q0-10-5.5-18T908 595l-226-90q-11-4-22-0.5T643 518l-52 87q-54-31-97.5-74.5T419 433l87-52q10-6 13.5-17t-0.5-22l-90-226q-4-9-12-14.5T399 96H218q-24 0-46.5 9.5T132 132z" />
</svg>