<svg viewBox="0 0 1024 1024" width="32" height="32" xmlns="http://www.w3.org/2000/svg" xmlns:xlink="http://www.w3.org/1999/xlink">
    <path fill="currentColor" d="M512 1003l12-15q6-7 58-75 53-68 114-160t111-190 50-164q0-65-27.5-131.5T752 146q-51-56-114-87T512 28 386 59 272 146q-50 55-77.5 121.5T167 399q0 66 50 164t111 190 114 160q52 68 58 75zM626 89v0q56 29 100.5 77T798 275t27 124q0 55-41 137-40 83-93 165.5T586 854q-52 69-74 98-22-29-74-98-52-70-105-152.5T240 536q-41-82-41-137 0-63 27-124t71.5-109T398 89 512 60 626 89zM512 544q55 0 94.5-39.5T646 409q0-57-39.5-96.5T512 273t-94.5 39.5T378 409q0 56 39.5 95.5T512 544zM512 305q42 0 72 30.5t30 73.5q0 42-30 72.5T512 512t-72-30.5-30-72.5q0-43 30-73.5t72-30.5z" />
</svg>