<svg viewBox="0 0 1024 1024" width="32" height="32" xmlns="http://www.w3.org/2000/svg" xmlns:xlink="http://www.w3.org/1999/xlink">
    <path fill="currentColor" d="M604 476v0q43-18 74.5-50t50.5-75 19-92q0-48-19-91t-51-75-74-51q-43-18-92-18t-92 18q-42 19-74 51t-51 75-19 91q0 49 19 92t51 75 74 50q43 19 92 19t92-19zM512 56q42 0 79 16t65 43.5 44 64.5 16 79-16 79q-16 38-44 65.5T591 447t-79 16-79-16-65-43.5-44-65.5q-16-37-16-79t16-79 44-64.5 65-43.5 79-16zM854 984V763q0-70-49.5-119.5T685 594H339q-70 0-119.5 49.5T170 763v221h32V763q0-57 40-97t97-40h346q57 0 97 40t40 97v221z" />
</svg>