<svg viewBox="0 0 1024 1024" width="32" height="32" xmlns="http://www.w3.org/2000/svg" xmlns:xlink="http://www.w3.org/1999/xlink">
    <path fill="currentColor" d="M213 192q-12 0-24 5t-21 14-14 20.5-5 23.5q4 61 19 119 14 58 38.5 112.5T265 590t77 92 92 77 103.5 58.5T650 856q58 15 119 19 12 0 23.5-5t20.5-14 14-21 5-24V654l-183-73-55 91q-4 7-12 9.5t-15-1.5q-37-17-69-41-33-23-61.5-51.5T385 526q-24-32-41-69-4-7-1.5-15t9.5-12l91-55-73-183zM213 149h171q7 0 12 4t8 10l85 213q3 7 0.5 14.5T480 402l-89 54q31 56 76 101t101 76l54-89q4-7 11.5-9.5T648 535l213 85q6 3 10 8t4 12v171q0 21-8.5 40.5T843 886t-34.5 23-40.5 8q0 0-0.5 0t-0.5 0q-65-4-127-19t-119.5-41.5T410 794t-98-82q-46-45-82-98t-62.5-110.5T126 384 107 257q0 0 0-0.5t0-0.5q0-21 8-40.5t23-34.5 34.5-23.5 40.5-8.5zM619 299q0 9 6 15t15 6q13 0 24.5 5t20.5 14 14 20.5 5 24.5q0 9 6 15t15 6 15.5-6 6.5-15q0-21-8.5-40.5T715 309t-34.5-23.5T640 277q-9 0-15 6.5t-6 15.5zM619 128q0 9 6 15t15 6q47 0 90 18t76 51 51 76 18 90q0 9 6 15t15 6 15-6 6-15q0-55-21-106t-60-90-90-60-106-21q-9 0-15 6t-6 15z" />
</svg>