<svg viewBox="0 0 1024 1024" width="32" height="32" xmlns="http://www.w3.org/2000/svg" xmlns:xlink="http://www.w3.org/1999/xlink">
    <path fill="currentColor" d="M883 78q11 2 21.5 8t19.5 14q8 9 14 19.5t8 21.5q5 28-4.5 48.5T912 224q-10 6-21.5 9.5T867 237h-80v-80q0-12 3.5-23.5T800 112q7-10 16-17.5T836 83q11-5 23-6t24 1zM787 280h80q18 0 35.5-5.5T935 259q30-19 45.5-51.5T988 133q-4-18-12.5-34T954 70 925 48.5 891 36q-13-2-27-2t-27 4q-3-2-6-3t-7-1H308q-34 0-66 13t-57 38q-24 24-37 56t-13 67v537H54q-9 0-15 6.5T33 766v51q0 35 13 67t38 56q24 25 56 38t67 13h457q24 0 47-9.5t40-26.5 26.5-39.5 9.5-47.5zM744 157v711q0 16-6 31t-17 26q-12 11-26.5 17t-30.5 6-31-6-26-17-17-26-6-31V766q0-8-6.5-14.5T562 745H177V208q0-26 10-50.5t29-42.5q18-18 42-28t50-10h466q-2 2-4.5 5t-4.5 7q-10 15-15.5 32.5T744 157zM207 948q-26 0-50.5-10T114 910 86 867.5 76 817v-29h465v80q0 22 7.5 43t22.5 37zM344 243.5q6-6.5 15-6.5h203q9 0 15.5 6.5T584 259q0 8-6.5 14.5T562 280H359q-9 0-15-6.5t-6-14.5q0-9 6-15.5zM359 440q-9 0-15 6.5t-6 15.5 6 15 15 6h203q9 0 15.5-6t6.5-15-6.5-15.5T562 440z" />
</svg>