<svg viewBox="0 0 1024 1024" width="32" height="32" xmlns="http://www.w3.org/2000/svg" xmlns:xlink="http://www.w3.org/1999/xlink">
    <path fill="currentColor" d="M512 341q71 0 121 50t50 121-50 121-121 50-121-50-50-121 50-121 121-50zM307 0h410q63 0 119 24t98 66 66 98 24 119v410q0 63-24 119t-66 98-98 66-119 24H307q-63 0-119-24t-98-66-66-98T0 717V307q0-63 24-119t66-98 98-66 119-24zM292 605v0q19 44 51 76t76 51 93 19 93-19 76-51 51-76 19-93-19-93-51-76-76-51-93-19-93 19-76 51-51 76-19 93 19 93zM751 205h68v68h-68z" />
</svg>