<svg viewBox="0 0 1024 1024" width="32" height="32" xmlns="http://www.w3.org/2000/svg" xmlns:xlink="http://www.w3.org/1999/xlink">
    <path fill="currentColor" d="M13 307q0 66 46 112t112 46q65 0 111.5-46T329 307V102q0-37-26.5-63T239 13 175.5 39 149 102v239h43V102q0-19 13.5-33T239 55q19 0 33 14t14 33v205q0 48-34 81.5T171 422q-48 0-82-33.5T55 307V0H13zM886.5 69Q900 83 900 102v820q0 19-13.5 33T853 969H171q-20 0-33.5-14T124 922V546H81v376q0 37 26.5 63t63.5 26h682q37 0 63.5-26t26.5-63V102q0-37-26.5-63T853 13H410v42h443q20 0 33.5 14zM478 286v43h273v-43zM478 491v42h273v-42zM273 695v43h478v-43z" />
</svg>