<svg viewBox="0 0 1024 1024" width="32" height="32" xmlns="http://www.w3.org/2000/svg" xmlns:xlink="http://www.w3.org/1999/xlink">
    <path fill="currentColor" d="M784 240v0q27 26 48 57t35 66q15 35 22 71.5t7 74.5q0 79-30 148t-82 120.5T662 859q-69 30-148 30h-1q-47 0-93.5-11.5T331 843l-203 53 54-197q-25-43-38-91.5T131 509q0-79 30-148 30-70 82-121.5T365 158t149-30q37 0 74 7t72 22q35 14 66.5 35t57.5 48zM514 825q65 0 123-25t101-68 68-100q25-58 25-123 1-31-5.5-62T807 388q-12-29-29-55t-40-48q-22-22-48-39.5T635 216t-59.5-18-61.5-6q-66 0-124 25t-101 68-68 101q-25 57-25 123 0 44 12 87t36 81l8 12-32 117 120-32 12 7q36 22 77.5 33t83.5 11zM688 588q7 4 11.5 6t6.5 5 1.5 16-6.5 30q-6 16-28.5 29.5T636 690q-12 2-27.5 1.5T576 686q-10-3-23.5-8T522 666q-72-31-116-85t-48-59q-3-4-21-33.5T319 424t13.5-53.5T353 345q2-3 5-5t6-4q4-1 7.5-2t6.5-1q5 0 9.5 0t9.5 0q4 0 9.5 1.5T418 349q6 15 17 41t12 30q2 4 3 8t-2 9q-2 4-4 7.5t-5 8.5q-4 4-7.5 8.5T424 469q-3 4-5.5 8t1.5 12q4 7 18 27t35 38q28 25 49 34.5t28 13.5q7 3 12 2.5t9-5.5q4-4 14.5-17t15.5-20 10-7 12 2q6 3 32 15.5t33 15.5z" />
</svg>