<svg viewBox="0 0 1024 1024" width="32" height="32" xmlns="http://www.w3.org/2000/svg" xmlns:xlink="http://www.w3.org/1999/xlink">
    <path fill="currentColor" d="M992 56v717H635q-4 5-8.5 9t-9.5 8v191l-101-61-109 59V791q-5-5-9.5-9t-8.5-9H32V56zM585 924V812q-16 8-34.5 13t-38.5 5-38.5-5-34.5-13v114l77-43zM603 760q38-38 38-91 0-54-38-92t-91-38-91 38-38 92q0 53 38 91t91 38 91-38zM960 741V87H64v654h304q-8-16-12.5-34.5T351 669q0-67 47-114.5T512 507t114 47.5 47 114.5q0 19-4.5 37.5T656 741zM179 264h666v-32H179zM179 430h666v-32H179z" />
</svg>