<svg viewBox="0 0 1024 1024" width="32" height="32" xmlns="http://www.w3.org/2000/svg" xmlns:xlink="http://www.w3.org/1999/xlink">
    <path fill="currentColor" d="M478 439v146l109-73zM103 121q-45 10-74 45.5T0 248v528q0 46 29 81.5t74 45.5q101 22 204 32 102 11 205 11t205-11q103-10 204-32 45-10 74-45.5t29-81.5V248q0-46-29-81.5T921 121Q820 99 717 89 615 78 512 78T307 89q-103 10-204 32zM463 347 667 484q8 4 12 11.5t4 16.5-4 16.5-12 11.5L463 677q-8 5-17.5 5.5T428 679q-9-5-13.5-13t-4.5-17V375q0-9 4.5-17t13.5-13q8-4 17.5-3.5T463 347z" />
</svg>