<svg viewBox="0 0 1024 1024" width="32" height="32" xmlns="http://www.w3.org/2000/svg" xmlns:xlink="http://www.w3.org/1999/xlink">
    <path fill="currentColor" d="M117 0h790q48 0 82.5 34.5T1024 117v790q0 48-34.5 82.5T907 1024H117q-48 0-82.5-34.5T0 907V117q0-48 34.5-82.5T117 0zM37 117v790q0 33 23.5 56.5T117 987h790q33 0 56.5-23.5T987 907V117q0-33-23.5-56.5T907 37H117q-33 0-56.5 23.5T37 117zM282 263h84v103H263V263zM282 395h84v366H263V395zM413 395h85v18q18-9 38-13.5t42-4.5q76 0 129.5 53.5T761 578v183H658V578q0-33-23.5-56.5T578 498t-56.5 23.5T498 578v183H395V395z" />
</svg>