<svg viewBox="0 0 1024 1024" width="32" height="32" xmlns="http://www.w3.org/2000/svg" xmlns:xlink="http://www.w3.org/1999/xlink">
    <path fill="currentColor" d="M171 55h537l192 193v93h43V230L726 13H171q-37 0-63.5 26T81 102v239h43V102q0-19 13.5-33T171 55zM695 751h43V602h81v-43h-81v-94h149v-43H738v-12h-43zM149 422v329h43V602h47q37 0 63.5-26.5T329 512t-26.5-63.5T239 422zM192 465h47q19 0 33 14t14 33-14 33-33 14h-47zM422 738h90q37 0 63.5-26t26.5-63V512q0-37-26.5-63.5T512 422h-90zM465 465v230h47q19 0 33-13.5t14-32.5V512q0-19-14-33t-33-14zM81 922q0 37 26.5 63t63.5 26h682q37 0 63.5-26t26.5-63V819h-43v103q0 19-13.5 33T853 969H171q-20 0-33.5-14T124 922V819H81z" />
</svg>