<svg viewBox="0 0 1024 1024" width="32" height="32" xmlns="http://www.w3.org/2000/svg" xmlns:xlink="http://www.w3.org/1999/xlink">
    <path fill="currentColor" d="M236 85v186q-17-16-39-25.5t-48-9.5q-52 0-89 37t-37 90q0 52 37 89t89 37q26 0 48-9.5t39-25.5v51q0 56 21 108t60 92q35 36 80.5 57t94.5 25v175H299q-8 0-14 5.5t-6 13.5 6 14 14 6h384q8 0 13.5-6t5.5-14-5.5-13.5T683 962H532V787q49-4 94.5-25t80.5-57q39-40 60-92t21-108v-51q17 16 39 25.5t48 9.5q52 0 89-37t37-89q0-53-37-90t-89-37q-26 0-48 9.5T788 271V85q0-8-6-13.5T768 66H256q-8 0-14 5.5T236 85zM748 363v142q0 49-18 93.5T679 677q-33 35-76.5 53T512 748t-90.5-18-76.5-53q-33-34-51-78.5T276 505V363v0-1-257h472zM788 363q0 0 0 0t0 0 0 0 0 0q0-36 25.5-61.5T875 276t61.5 25.5T962 363t-25.5 61.5T875 450t-61.5-25.5T788 363zM149 450q-36 0-61.5-25.5T62 363t25.5-61.5T149 276t61.5 25 25.5 61v1q0 36-25.5 61.5T149 450z" />
</svg>