<svg viewBox="0 0 1024 1024" width="32" height="32" xmlns="http://www.w3.org/2000/svg" xmlns:xlink="http://www.w3.org/1999/xlink">
    <path fill="currentColor" d="M187 64h-59v43h59zM422 64h-59v43h59zM658 64h-59v43h59zM313 238v621h227v-42H355V280h546v182h43V238zM187 296h-59v42h59zM554 476q-4 4-5.5 9.5T549 497l118 405q1 6 6.5 10.5T686 917q6 1 12-2.5t9-9.5l85-195 198-84q6-3 9.5-8.5t3.5-12.5q-1-7-5-12t-11-7L575 470q-5-1-11 0.5t-10 5.5zM601 522l316 89-150 63q-4 1-7 4t-4 7l-65 148zM187 527h-59v43h59z" />
</svg>