<svg viewBox="0 0 1024 1024" width="32" height="32" xmlns="http://www.w3.org/2000/svg" xmlns:xlink="http://www.w3.org/1999/xlink">
    <path fill="currentColor" d="M13 444q0-90 34-168 34-79 92.5-137T276 47 444 13q89 0 167 34 79 34 137.5 92T841 276q34 78 34 168 0 83-30 157.5T763 733l242 242-30 30-242-242q-57 52-131.5 82T444 875q-90 0-168-34t-136.5-92.5T47 611q-34-78-34-167zM805.5 584.5Q832 518 832 444q0-81-31-151-30-71-82.5-124T595 86q-71-31-151-31-81 0-151 31-71 30-124 83T86 293q-31 70-31 151 0 80 31 151 30 71 83 123.5T293 801q70 31 151 31 74 0 140.5-26.5T703 733l-1-1 30-30 1 1q46-52 72.5-118.5z" />
</svg>