<svg viewBox="0 0 1024 1024" width="32" height="32" xmlns="http://www.w3.org/2000/svg" xmlns:xlink="http://www.w3.org/1999/xlink">
    <path fill="currentColor" d="M358 149h308q48 0 89.5 22.5T821 233l139 221v378q0 17-13 30t-33 13h-67q-19 0-32-13t-13-30v-85H222v85q0 17-13 30t-32 13h-67q-20 0-33-13t-13-30V454l139-221q24-39 65.5-61.5T358 149zM167 210 21 442v390q0 36 26.5 60.5T110 917h67q36 0 62-24.5t26-60.5v-43h494v43q0 36 26 60.5t62 24.5h67q36 0 62.5-24.5T1003 832V442L857 210q-30-48-81-75.5T666 107H358q-59 0-110 27.5T167 210zM814 469v-42H210v42zM344 619H143v42h201zM680 661h201v-42H680z" />
</svg>