<svg viewBox="0 0 1024 1024" width="32" height="32" xmlns="http://www.w3.org/2000/svg" xmlns:xlink="http://www.w3.org/1999/xlink">
    <path fill="currentColor" d="M218 149q-13 0-26 5.5T170 170q-10 9-15.5 21.5T149 218q4 64 20 126 15 61 41 118.5T272 573q36 52 81 98 46 45 98 81 53 36 110.5 62T680 855q62 16 126 20 14 0 26.5-5.5T854 854q10-9 15.5-22t5.5-26V639l-196-78-58 98q-5 7-13 9t-15-1q-38-19-73-44-34-25-64-55t-55-64q-25-35-44-73-3-7-1-15t9-13l98-58-78-196zM218 107h181q7 0 12 3.5t8 9.5l90 226q3 7 0.5 14.5T500 372l-95 58q32 60 80.5 108.5T594 619l58-95q4-7 11.5-9.5T678 515l226 90q6 3 9.5 8t3.5 12v181q0 22-8.5 42.5T885 885q-16 15-36.5 23.5T806 917q-1 0-1 0t-1 0q-68-4-133-20-66-16-127-43.5T427 787q-56-38-104-86t-86-104q-39-56-66.5-117T127 353q-16-65-20-133 0-1 0-1t0-1q0-22 8.5-42.5T139 139q16-15 36.5-23.5T218 107z" />
</svg>