<svg viewBox="0 0 1024 1024" width="32" height="32" xmlns="http://www.w3.org/2000/svg" xmlns:xlink="http://www.w3.org/1999/xlink">
    <path fill="currentColor" d="M978 181l-36 22q-22-37-58-67-35-31-79.5-52T710 52q-51-11-104-9-52 2-103 17-52 16-98 47.5T320 188q-38 49-65 118-2 7-5 16t-5 20h267v42H236q0 6-0.5 11.5T235 406v170q0 4 0 9.5t1 12.5h276v42H242q3 14 6 29t7 30q11 40 37 79 25 38 61 71t82 58q45 25 96 38 50 13 103 13 54 1 107.5-16T846 890t97-92l34 26q-50 63-107 102-57 38-116 56.5T635 1001q-59 0-115-15-55-14-105-42-50-27-90.5-63.5T256 801q-29-44-42-91-5-18-8.5-35.5T199 640H43v-42h150q0-7-0.5-12.5T192 576V406q0-5 0.5-10.5T193 384H43v-42h158q3-16 7-29t6-21h1v-1q29-75 72-129t94-89.5T489 20Q547 2 605 0q57-2 113 10t105 35.5 89 58.5q40 34 66 77z" />
</svg>