<svg viewBox="0 0 1024 1024" width="32" height="32" xmlns="http://www.w3.org/2000/svg" xmlns:xlink="http://www.w3.org/1999/xlink">
    <path fill="currentColor" d="M96 66q-14 0-27.5 5.5T44 87q-10 10-15.5 23.5T23 139v640q0 35 13.5 68T76 906q25 25 58 38.5t69 13.5h586q25 0 48.5-9.5T879 921q17-17 27-40.5t10-48.5V245q0-14-6-27.5T894 194t-23.5-16-27.5-6H702v-33q0-15-5.5-28.5T681 87 657.5 71.5 629 66zM203 919q-28 0-54-10.5T103 878q-19-20-30-45.5T62 779V139q0-7 2.5-13t7.5-11 11-7.5 13-2.5h533q7 0 13 2.5t11 7.5 7.5 11 2.5 13v693q0 24 9 47t26 40zM702 832V212h141q6 0 12.5 2.5T867 221q4 5 6.5 11.5T876 245v587q0 17-6.5 33T851 894q-12 12-28 18.5t-34 6.5q-17 0-33-6.5T728 894q-13-13-19.5-29t-6.5-33zM256 279q-8 0-14 6t-6 14 6 13.5 14 5.5h213q8 0 14-5.5t6-13.5-6-14-14-6zM236 512q0-8 6-14t14-6h213q8 0 14 6t6 14-6 14-14 6H256q-8 0-14-6t-6-14zM256 706q-8 0-14 5.5t-6 13.5 6 14 14 6h213q8 0 14-6t6-14-6-13.5-14-5.5z" />
</svg>