<svg viewBox="0 0 1024 1024" width="32" height="32" xmlns="http://www.w3.org/2000/svg" xmlns:xlink="http://www.w3.org/1999/xlink">
    <path fill="currentColor" d="M1022 100q3 43 0.5 76t-12.5 61q-9 25-23 45.5T954 321v33q0 125-47 234-47 110-128.5 191.5T587 908q-109 48-233 48h-4q-40 0-82-1-42-2-84.5-8.5T99 925q-42-16-84-43-9-7-13-17.5T1 843q4-10 13-17t20-7q87 0 158.5-30T308 728q-49-20-90-46t-75-56-59-65q-26-35-43-74-19-44-27-92t-4-98.5T30 193q15-52 42-106 4-9 13-14t19-5q10 1 18.5 7T134 90q11 30 38 70 26 41 68.5 79T342 305q59 29 135 35v-30q0-50 19-94t52-77 77-52 94-19q46 0 87.5 17t72.5 47q23-6 44.5-19.5T963 80q7-8 17-10.5t20 0.5q9 4 15.5 12t6.5 18z" />
</svg>