<svg viewBox="0 0 1024 1024" width="32" height="32" xmlns="http://www.w3.org/2000/svg" xmlns:xlink="http://www.w3.org/1999/xlink">
    <path fill="currentColor" d="M512 107q-64 0-120 23-56 24-97.5 64.5T229 289q-24 55-24 116v299h614V405q0-61-24-116-24-54-65.5-94.5T632 130q-56-23-120-23zM862 704h77v43H85v-43h77V405q0-71 28-133t75.5-108T376 91q64-27 136-27t136 27q63 27 110.5 73T834 272t28 133zM359 853v-32h43v32q0 44 32 75.5t78 31.5 78-31.5 32-75.5v-32h43v32q0 63-45 106.5T512 1003 404 959.5 359 853z" />
</svg>