<svg viewBox="0 0 1024 1024" width="32" height="32" xmlns="http://www.w3.org/2000/svg" xmlns:xlink="http://www.w3.org/1999/xlink">
    <path fill="currentColor" d="M674 129v0q76 32 132.5 88.5T895 350q33 76 33 162t-33 162q-32 76-88.5 132.5T674 895q-76 33-162 33t-162-33q-76-32-132.5-88.5T129 674q-33-76-33-162t33-162q32-76 88.5-132.5T350 129q76-33 162-33t162 33zM70 699v0q37 87 102.5 152.5T325 954q88 38 187 38t187-38q87-37 152.5-102.5T954 699q38-88 38-187t-38-187q-37-87-102.5-152.5T699 70q-88-38-187-38T325 70q-87 37-152.5 102.5T70 325q-38 88-38 187t38 187zM557 512 685 384l-45-45-128 128-128-128-45 45 128 128-128 128 45 45 128-128 128 128 45-45z" />
</svg>