<svg viewBox="0 0 1024 1024" width="32" height="32" xmlns="http://www.w3.org/2000/svg" xmlns:xlink="http://www.w3.org/1999/xlink">
    <path fill="currentColor" d="M124 110q0-37 26-63t63-26h615q37 0 63 26t26 63v804q0 37-26 63t-63 26H213q-37 0-63-26t-26-63V734H43v-42h81V332H43v-42h81zM166 332v360h81v42h-81v180q0 19 14 32.5t33 13.5h615q19 0 33-13.5t14-32.5V110q0-19-14-32.5T828 64H213q-19 0-33 13.5T166 110v180h81v42zM397 344q0 51 36.5 86.5T521 466t87-35.5 36-86.5q0-50-36-86t-87-36-87.5 36-36.5 86zM578 288.5q24 23.5 24 55.5 0 33-24 56.5T521 424q-34 0-58-23.5T439 344q0-32 24-55.5t58-23.5q33 0 57 23.5zM521 600q62 0 105.5 43T670 747v12H371v-12q0-61 43.5-104T521 600zM329 747v55h384v-55q0-79-56.5-134T521 558q-80 0-136 55t-56 134z" />
</svg>