<svg viewBox="0 0 1024 1024" width="32" height="32" xmlns="http://www.w3.org/2000/svg" xmlns:xlink="http://www.w3.org/1999/xlink">
    <path fill="currentColor" d="M512 997l7-3q3-2 64-42.5T717 819q33-43 68-102 35-58 63-135t46-172 18-209v-16h-16q-51 0-115-24-65-24-122.5-52.5T561 56q-39-24-40-25l-9-5-8 5q-1 0-41 24-40 23-97.5 51T243 158q-64 23-115 23h-16v16q0 115 18 211 18 95 46 172t63 136q35 60 68 102 73 93 134 133.5t64 42.5zM144 212q49-3 107-23 57-20 109.5-44.5T454 96q42-23 58-33 16 10 57 34t94 49.5 110 45.5q58 21 107 24-1 108-19 197t-44.5 161T757 702q-33 55-64 96-59 74-111 113.5T512 961q-18-10-69.5-49T333 798q-32-40-65-96t-60-128.5T163 411 144 212zM512 627l23-22-194-208-23 22zM489 605l24 22 263-282-24-22z" />
</svg>