<svg viewBox="0 0 1024 1024" width="32" height="32" xmlns="http://www.w3.org/2000/svg" xmlns:xlink="http://www.w3.org/1999/xlink">
    <path fill="currentColor" d="M512 27q100 0 189 38 88 38 154 104t104 154q38 89 38 189t-38 189q-38 88-104 154T701 959q-89 38-189 38t-189-38q-88-38-154-104T65 701q-38-89-38-189t38-189q38-88 104-154T323 65q89-38 189-38zM954 412q-17-76-58-140-41-65-99.5-112.5T666 85q-73-26-154-26-27 0-52.5 3T409 71l-11 76 65 75 95-47 8 5q45 32 53 42t8 16q1 7 10 51.5t17 81.5l124 79-59 163 24 67q8 1 19 3t23 4 21 4 16 4q5-25 14-73t16-86v-4zM59 512q0 91 34 172t92.5 142 137.5 98 170 41l-87-47-44-80 71-86 32-94-75-42-174 23-24-103-36-35-97-6q0 4 0 8.5t0 8.5zM556 963q86-8 161-47 75-38 130-98.5T934 679q31-79 31-167 0-15-1-29.5t-3-29.5l-79 94q-1 9-5.5 33t-9.5 51q-4 17-7 32.5t-5 28.5q-1 6-2 11.5t-2 8.5q-1 6-4.5 13.5T834 733q-1 0-1.5-0.5T832 732t-7.5-0.5-7.5-0.5v-4q-12-3-37.5-8t-50.5-9l-9-2-35-95 54-150-114-72-1-7q-15-73-21-102t-7-38q-4-4-16-13.5T555 212l-100 50-90-105 10-77q-63 20-117 57t-95.5 87T95 335 61 463l109 7 51 49 20 85 155-21 108 60-43 124-60 75 28 52z" />
</svg>