<svg viewBox="0 0 1024 1024" width="32" height="32" xmlns="http://www.w3.org/2000/svg" xmlns:xlink="http://www.w3.org/1999/xlink">
    <path fill="currentColor" d="M341 325v50q0 23 3.5 45t9.5 43l34-23q8-6 12-15t3-19l-10-57q-3-18-19.5-25.5T341 325zM649 683h50q9-16 1.5-32.5T675 631l-57-10q-10-1-19 3t-15 12l-23 34q21 6 43 9.5t45 3.5zM0 512q0-106 40-199 40-94 109.5-163.5T313 40Q406 0 512 0t199 40q94 40 163.5 109.5T984 313q40 93 40 199t-40 199q-40 94-109.5 163.5T711 984q-93 40-199 40-81 0-154.5-23.5T222 934l-173 86q-9 5-20 3.5t-19-9.5-9.5-19 3.5-20l86-173q-43-62-66.5-135.5T0 512zM289 278q-7 5-11.5 12.5T273 307v68q0 78 30 147 29 68 80 119t119 80q69 30 147 30h68q9 0 16.5-4.5T745 735l10-14q31-46 9-97t-77-61l-58-9q-29-5-57 7t-45 37l-30 45q-36-21-65.5-50.5T381 527l45-30q25-17 37-45t7-57l-9-58q-10-55-61-77t-97 9l-14 10z" />
</svg>