<svg viewBox="0 0 1024 1024" width="32" height="32" xmlns="http://www.w3.org/2000/svg" xmlns:xlink="http://www.w3.org/1999/xlink">
    <path fill="currentColor" d="M896 512q0 80-30 149-30 70-82.5 122.5T661 866q-69 30-149 30t-149-30q-70-30-122.5-82.5T158 661q-30-69-30-149t30-149q30-70 82.5-122.5T363 158q69-30 149-30 83 0 156 33t125 90L535 533 339 390l-38 52 243 177 289-317q30 45 46.5 98.5T896 512zM925 338v0q-35-82-96-143T686 99q-81-35-174-35T338 99q-82 35-143 96T99 338q-35 81-35 174t35 174q35 82 96 143t143 96q81 35 174 35t174-35q82-35 143-96t96-143q35-81 35-174t-35-174z" />
</svg>