<svg viewBox="0 0 1024 1024" width="32" height="32" xmlns="http://www.w3.org/2000/svg" xmlns:xlink="http://www.w3.org/1999/xlink">
    <path fill="currentColor" d="M725 67q46 0 88.5 18t75.5 51q32 32 50 74.5t19 89.5q0 46-17 88.5T892 465L763 593q-17 18-38.5 31.5T680 647q-24 9-49 12.5t-50 1.5-49.5-9-46.5-19-41-28.5-34-36.5q-6-8-4.5-16.5T414 538q7-6 15.5-4.5T444 542q12 16 27.5 30t33.5 23q19 10 38.5 16t40.5 7q20 2 40.5-1t40.5-10q19-7 36.5-18.5T733 563l128-128q26-27 40-62t14-73-15-72.5-41-61.5q-27-27-62-41.5T725 110q-38-1-73 13t-62 40l-74 73q-6 6-15 6t-15-6-6-15 6-15l74-73q33-32 76-49t89-17zM443 363q25 2 49.5 9t46.5 19 41 28.5 34 37.5q6 7 4.5 15.5T610 486q-7 6-15.5 4.5T580 482q-12-16-27.5-29.5T519 429q-19-10-38.5-16t-40.5-7q-20-2-40.5 1T359 417q-19 8-36.5 19T291 461L163 589q-26 27-40 62.5T109 724q0 38 15 73t41 61q27 27 62 41.5t72 15.5q38 0 73-14t62-40l73-73q6-6 15-6t15 6q7 6 7 15t-7 15l-73 73q-33 32-76 49.5T299 957q-46 0-88.5-18T135 888q-32-32-50-74.5T66 725q0-47 17-89.5t49-75.5l129-129q17-18 38.5-31.5T345 377q23-9 48-12.5t50-1.5z" />
</svg>