<svg viewBox="0 0 1024 1024" width="32" height="32" xmlns="http://www.w3.org/2000/svg" xmlns:xlink="http://www.w3.org/1999/xlink">
    <path fill="currentColor" d="M216 88q-11 12-17.5 27t-6.5 32v730q0 17 6.5 32t17.5 27q12 11 27 17.5t31 6.5h518q17 0 32-6.5t27-17.5q11-12 17.5-27t6.5-32V320H691q-14 0-27.5-5.5T640 299t-15.5-23.5T619 247V64H274q-16 0-31 6.5T216 88zM917 301q0 1 0 1.5t0 0.5v574q0 25-9.5 48T881 966q-18 18-41 27.5t-48 9.5H274q-25 0-48-9.5T186 966q-18-18-27.5-41t-9.5-48V147q0-25 9.5-48T186 58q17-18 40-27.5t48-9.5h363q0 0 0.5 0t0.5 0q1 0 1.5 0t0.5 0q7 0 12.5 4t7.5 11l241 242q7 1 11.5 7t4.5 14q0 0 0 0.5t0 1.5zM661 97v150q0 6 2.5 11.5T670 269q4 4 9.5 6t11.5 2h149z" />
</svg>