<svg viewBox="0 0 1024 1024" width="32" height="32" xmlns="http://www.w3.org/2000/svg" xmlns:xlink="http://www.w3.org/1999/xlink">
    <path fill="currentColor" d="M907 30q35 0 60 24.5t25 59.5v501q0 35-25 60t-60 25H528v262h347v32H149v-32h347V700H117q-35 0-60-25t-25-60V115q0-35 25-60t60-25zM117 62q-22 0-37.5 15.5T64 115v374h896V115q0-22-15.5-37.5T907 62zM907 668q22 0 37.5-15.5T960 615v-94H64v94q0 22 15.5 37.5T117 668zM532.5 573.5Q541 582 541 595q0 12-8.5 20.5T512 624t-20.5-8.5T483 595q0-13 8.5-21.5T512 565t20.5 8.5z" />
</svg>