<svg viewBox="0 0 1024 1024" width="32" height="32" xmlns="http://www.w3.org/2000/svg" xmlns:xlink="http://www.w3.org/1999/xlink">
    <path fill="currentColor" d="M772 967v0q8 0 16-2t16-5q7-3 14-8t12-11q6-6 10.5-13t7.5-14q3-8 4.5-16t0.5-16V319h-57v563q1 2 0.5 5t-1.5 5q-1 3-2 5t-3 4-4 3.5-4 2.5q-2 2-4.5 2.5T772 910H252q-3 0-5.5-0.5T242 907q-2-1-4-2.5t-4-3.5-3-4-2-5q-1-2-1.5-5t0.5-5V319h-57v563q-1 8 0.5 16t4.5 16q3 7 7.5 14t10.5 13q5 6 12 11t14 8q8 3 16 5t16 2zM886.5 254q5.5-2 9.5-6t6-9.5 2-10.5q0-6-2-11.5t-6-9.5-9.5-6-11.5-2H142q-5 0-10.5 2t-9.5 6-6 9.5-2 11.5q0 5 2 10.5t6 9.5 9.5 6 10.5 2h733q6 0 11.5-2zM597 796h57V370h-57zM370 796h57V370h-57zM654 114q0-11-4-21.5T639 75q-8-8-18-13t-21-5H424q-11 0-21 5t-18 13q-7 7-11 17.5t-4 21.5v53h54v-53h176v53h54z" />
</svg>