<svg viewBox="0 0 1024 1024" width="32" height="32" xmlns="http://www.w3.org/2000/svg" xmlns:xlink="http://www.w3.org/1999/xlink">
    <path fill="currentColor" d="M946 43q34 1 56.5 25t21.5 57v670q0 0 0 0t0 0 0 0.5 0 0.5q0 1-0.5 2.5t-0.5 2.5v0 0q0 0 0 0t0 0l-41 90q-4 8-12 13t-17 6h-14v65q0 4-1 8t-3 8h72q7 0 12 5t5 12q0 6-5 11t-12 5H17q-7 0-12-5t-5-11q0-7 5-12t12-5h51V697q0-20 15-34.5t36-14.5V369q-53-7-87.5-47T0 231q4-52 43-87.5t94-35.5q54 0 93 35.5t43 87.5q3 51-31.5 91T154 369v279q21 0 36 14.5t15 34.5v294h208q-2-4-2.5-8t-0.5-8v-65h-15q-9-1-17-6t-12-13l-40-89v-1 0q-1-1-1.5-2.5T324 796q0 0 0-0.5t0-0.5 0 0 0 0V125q-1-33 21.5-57T402 43zM34 239q0 41 30 69.5t73 28.5q42 0 72-28.5t30-69.5-30-69.5-72-28.5q-43 0-73 28.5T34 239zM171 991V697q0-7-5-11.5t-12-4.5h-35q-7 0-12 4.5t-5 11.5v294zM512 975v-65h-68v65q0 7 5 11.5t12 4.5h34q7 0 12-4.5t5-11.5zM543 991h262q-1-4-2-8t-1-8v-65H546v65q0 4-1 8t-2 8zM904 975v-65h-68v65q0 7 5 11.5t12 4.5h34q7 0 12-4.5t5-11.5zM981 811H367l30 66h554zM597 779h154v-33q0-7-5-11.5t-12-4.5H614q-7 0-12 4.5t-5 11.5zM990 125q1-19-11.5-33.5T946 75H402q-20 2-32.5 16.5T358 125v654h205v-33q0-20 15-34.5t36-14.5h120q21 0 36 14.5t15 34.5v33h205zM941 122.5q15 14.5 15 34.5v17q0 20-15 34.5T904 223H444q-22 0-36.5-14.5T393 174v-17q0-20 15-34.5t36-14.5h460q22 0 37 14.5zM922 157q0-7-5-11.5t-13-4.5H444q-7 0-12 4.5t-5 11.5v17q0 6 5 11t12 5h460q8 0 13-5t5-11zM412.5 727q19.5 19 48.5 19 28 0 48-19t20-46q0-28-20-47t-48-19q-29 0-48.5 19T393 681q0 27 19.5 46zM437 657.5q10-9.5 24-9.5t24 9.5 10 23.5q0 13-10 22.5t-24 9.5-24-9.5-10-22.5q0-14 10-23.5zM887 615q29 0 49 19.5t20 46.5-20 46-49 19q-28 0-48-19t-20-46q0-28 20-47t48-19zM912 703.5q10-9.5 10-22.5 0-14-10-23.5t-25-9.5q-14 0-24 9.5T853 681q0 13 10 22.5t24 9.5q15 0 25-9.5zM407.5 269.5Q393 284 393 304v229q0 21 15 35t36 14h460q22 0 37-14t15-35V304q0-20-15-34.5T904 255H444q-22 0-36.5 14.5zM444 550q-7 0-12-5t-5-12V304q0-6 5-11t12-5h460q8 0 13 5t5 11v229q0 7-5 12t-13 5z" />
</svg>