<svg viewBox="0 0 1024 1024" width="32" height="32" xmlns="http://www.w3.org/2000/svg" xmlns:xlink="http://www.w3.org/1999/xlink">
    <path fill="currentColor" d="M2 444q0 91 35 172 35 80 94.5 140T272 851q80 34 172 34 83 0 156.5-28.5T733 778l234 234 45-45-234-234q50-59 78.5-132.5T885 444q0-92-34-172-35-81-95-140.5T616 37Q535 2 444 2 352 2 272 37q-81 35-140.5 94.5T37 272Q2 352 2 444zM444 66q78 0 147 30 68 29 119.5 80.5T792 297q29 69 29 147t-29 147q-30 68-81.5 119.5T591 792q-69 29-147 29t-147-29q-69-30-120.5-81.5T96 591q-30-69-30-147t30-147q29-69 80.5-120.5T297 96q69-30 147-30z" />
</svg>