<svg viewBox="0 0 1024 1024" width="32" height="32" xmlns="http://www.w3.org/2000/svg" xmlns:xlink="http://www.w3.org/1999/xlink">
    <path fill="currentColor" d="M387 872h250v66q0 9 3 17t9 15q7 6 15 9t17 3h91q9 0 17-3t15-9q6-7 9-15t3-17v-66h18q13 0 25-5t21-15q9-9 14-21t5-25V417h83V221h-83V107q0-13-5-25t-14-21-21-14-25-6H190q-13 1-25 6t-21 14-14 21-5 25v283H69V249h56v-28H42v196h83v389q0 13 5 25t14 21q9 10 21 15t25 5h18v66q0 9 3 17t10 15q6 6 14 9t17 3h91q9 0 17-3t15-9q6-7 9-15t3-17zM955 390h-56V249h56zM235 872h125v66q0 4-1.5 7t-3.5 5-5 3.5-7 1.5h-91q-4 0-7-1.5t-5-3.5-3.5-5-1.5-7zM387 844H190q-7 0-14-3t-13-8q-5-5-8-12t-3-15V567h720v239q0 8-3 15t-8 12q-6 5-13 8t-14 3zM664 938v-66h125v66q0 4-1.5 7t-3.5 5-5 3.5-7 1.5h-91q-4 0-7-1.5t-5-3.5-3.5-5-1.5-7zM152 208h346v332H152zM526 208h346v332H526zM152 180v-73q0-7 3-14t8-13q6-5 13-8t14-3h644q7 0 14 3t13 8q5 6 8 13t3 14v73zM720 775q13 0 26-5.5t22-14.5q10-10 15.5-23t5.5-26q0-11-3-20.5t-9-18.5q-6-8-13.5-14.5T746 642q-9-4-19.5-5t-20.5 1-19 7-16 12q-8 7-12.5 16t-6.5 19-1 20.5 5 19.5q4 10 10.5 18t14.5 13q9 6 18.5 9t20.5 3zM720 664q8 0 15.5 3t13.5 9 9 13.5 3 16.5q0 6-1.5 12t-5.5 11q-3 5-8 9t-11 6q-5 2-11 3t-13-1q-6-1-11-4t-10-7q-4-4-7-9.5t-4-11.5-0.5-12.5 2.5-11.5q3-6 6.5-10.5t9.5-8.5q5-3 10.5-5t12.5-2zM266 763q-9-5-15.5-13t-9.5-18q-4-9-5-19.5t1-20.5 6.5-19 12.5-16q7-7 16-12t19-7 20-1 20 5q9 4 17 10.5t14 14.5q6 9 9 18.5t3 20.5q0 13-5.5 26T353 755q-9 9-22 14.5t-27 5.5q-10 0-19.5-3t-18.5-9zM281 671q-5 4-9 8.5t-6 10.5q-2 5-2.5 11.5T264 714t4 11.5 7 9.5 9.5 7 11.5 4q6 2 12.5 1t11.5-3q6-2 11-6t8-9 5-11 2-12q0-9-3-16.5t-9-13.5-13.5-9-16.5-3q-6 0-12 2t-11 5zM595 720H429v-28h166z" />
</svg>